<svg version="1.1" id="Layer_1" xmlns="http://www.w3.org/2000/svg" xmlns:xlink="http://www.w3.org/1999/xlink" x="0px" y="0px"
	 width="100%" viewBox="0 0 225 225" enable-background="new 0 0 225 225" xml:space="preserve">
<path fill="#FCFDFE" opacity="1.000000" stroke="none" 
	d="
M129.000000,226.000000 
	C86.000000,226.000000 43.500004,226.000000 1.000006,226.000000 
	C1.000004,151.000000 1.000004,76.000015 1.000002,1.000016 
	C75.999992,1.000010 150.999985,1.000010 225.999969,1.000005 
	C225.999985,75.999985 225.999985,150.999969 226.000000,225.999969 
	C193.833328,226.000000 161.666672,226.000000 129.000000,226.000000 
M12.181664,121.499985 
	C12.181508,137.160660 12.455819,152.827682 12.095077,168.480042 
	C11.802104,181.191879 20.097689,190.538284 34.015015,190.426285 
	C87.004372,189.999832 140.001373,189.990250 192.990585,190.424728 
	C207.750961,190.545746 215.004974,180.329697 214.917023,168.475861 
	C214.645050,131.819992 214.643478,95.159531 214.917221,58.503689 
	C215.008987,46.214314 207.334717,36.456970 192.988434,36.573925 
	C139.999176,37.005920 87.002083,37.010029 34.012909,36.572483 
	C19.540627,36.452980 11.872987,46.406254 12.083518,58.510147 
	C12.442828,79.167747 12.182528,99.836128 12.181664,121.499985 
z"/>
<path fill="#05ADFD" opacity="1.000000" stroke="none" 
	d="
M12.182081,120.999985 
	C12.182528,99.836128 12.442828,79.167747 12.083518,58.510147 
	C11.872987,46.406254 19.540627,36.452980 34.012909,36.572483 
	C87.002083,37.010029 139.999176,37.005920 192.988434,36.573925 
	C207.334717,36.456970 215.008987,46.214314 214.917221,58.503689 
	C214.643478,95.159531 214.645050,131.819992 214.917023,168.475861 
	C215.004974,180.329697 207.750961,190.545746 192.990585,190.424728 
	C140.001373,189.990250 87.004372,189.999832 34.015015,190.426285 
	C20.097689,190.538284 11.802104,181.191879 12.095077,168.480042 
	C12.455819,152.827682 12.181508,137.160660 12.182081,120.999985 
M142.990570,111.493431 
	C146.109314,108.733887 149.208298,105.951630 152.351242,103.219933 
	C157.549774,98.701622 158.317581,98.715866 163.079315,103.471146 
	C176.165924,116.540031 189.232254,129.629196 202.323914,142.693039 
	C203.289032,143.656113 204.392288,144.480774 205.909241,145.778687 
	C205.909241,116.766083 205.909485,88.610054 205.909103,60.454021 
	C205.908951,48.337967 202.963638,45.357399 190.940186,45.358120 
	C138.630432,45.361267 86.320694,45.371983 34.010948,45.377636 
	C24.801519,45.378628 21.098391,49.113495 21.094698,58.501472 
	C21.083691,86.493599 21.087065,114.485718 21.101347,142.477844 
	C21.102055,143.866302 21.258827,145.254700 21.386379,147.360413 
	C26.227205,143.432037 30.475964,140.010681 34.696320,136.554626 
	C51.832550,122.521721 68.956985,108.474419 86.092781,94.440987 
	C90.876801,90.523102 92.487877,90.641663 96.432541,95.153275 
	C99.392578,98.538742 102.321884,101.951118 105.289749,105.329674 
	C111.724983,112.655403 118.176178,119.967117 124.781357,127.466827 
	C130.958054,122.040352 136.701843,116.994232 142.990570,111.493431 
M97.499908,181.644470 
	C118.048668,181.644470 138.597427,181.644470 160.305878,181.644470 
	C136.648697,154.600967 113.799942,128.481613 90.858078,102.255836 
	C89.442009,103.340866 88.379196,104.109535 87.365738,104.938530 
	C67.527390,121.165993 47.849476,137.595947 27.753725,153.497925 
	C22.643387,157.541794 20.599131,161.653870 20.950172,168.080521 
	C21.495590,178.065674 24.594395,181.629745 34.559353,181.638809 
	C55.206188,181.657578 75.853050,181.644272 97.499908,181.644470 
M135.495041,129.994324 
	C133.915649,131.364487 132.336258,132.734634 130.632492,134.212692 
	C144.080933,149.605469 157.073318,164.572403 170.245529,179.379379 
	C171.359055,180.631104 173.656067,181.326874 175.438034,181.396957 
	C181.594528,181.639069 187.767334,181.424683 193.932175,181.510178 
	C198.826141,181.578049 203.810074,180.319107 204.666077,175.335587 
	C205.655685,169.574356 204.593887,163.460770 204.422760,157.500168 
	C188.898087,141.935822 173.373398,126.371468 157.559555,110.517212 
	C150.208389,117.004341 143.114822,123.264160 135.495041,129.994324 
z"/>
<path fill="#FBFDFE" opacity="1.000000" stroke="none" 
	d="
M142.718094,111.720764 
	C136.701843,116.994232 130.958054,122.040352 124.781357,127.466827 
	C118.176178,119.967117 111.724983,112.655403 105.289749,105.329674 
	C102.321884,101.951118 99.392578,98.538742 96.432541,95.153275 
	C92.487877,90.641663 90.876801,90.523102 86.092781,94.440987 
	C68.956985,108.474419 51.832550,122.521721 34.696320,136.554626 
	C30.475964,140.010681 26.227205,143.432037 21.386379,147.360413 
	C21.258827,145.254700 21.102055,143.866302 21.101347,142.477844 
	C21.087065,114.485718 21.083691,86.493599 21.094698,58.501472 
	C21.098391,49.113495 24.801519,45.378628 34.010948,45.377636 
	C86.320694,45.371983 138.630432,45.361267 190.940186,45.358120 
	C202.963638,45.357399 205.908951,48.337967 205.909103,60.454021 
	C205.909485,88.610054 205.909241,116.766083 205.909241,145.778687 
	C204.392288,144.480774 203.289032,143.656113 202.323914,142.693039 
	C189.232254,129.629196 176.165924,116.540031 163.079315,103.471146 
	C158.317581,98.715866 157.549774,98.701622 152.351242,103.219933 
	C149.208298,105.951630 146.109314,108.733887 142.718094,111.720764 
M176.063385,71.951126 
	C175.701538,70.678001 175.456009,69.357414 174.959045,68.139420 
	C171.652679,60.036182 163.811859,55.649162 154.880325,56.843502 
	C146.688507,57.938923 140.292114,64.550880 139.098602,73.157074 
	C138.036453,80.816063 143.048767,89.003159 150.636673,92.285057 
	C163.324753,97.772865 178.150192,87.207520 176.063385,71.951126 
z"/>
<path fill="#FBFDFE" opacity="1.000000" stroke="none" 
	d="
M96.999908,181.644318 
	C75.853050,181.644272 55.206188,181.657578 34.559353,181.638809 
	C24.594395,181.629745 21.495590,178.065674 20.950172,168.080521 
	C20.599131,161.653870 22.643387,157.541794 27.753725,153.497925 
	C47.849476,137.595947 67.527390,121.165993 87.365738,104.938530 
	C88.379196,104.109535 89.442009,103.340866 90.858078,102.255836 
	C113.799942,128.481613 136.648697,154.600967 160.305878,181.644470 
	C138.597427,181.644470 118.048668,181.644470 96.999908,181.644318 
z"/>
<path fill="#FCFDFE" opacity="1.000000" stroke="none" 
	d="
M135.758148,129.759155 
	C143.114822,123.264160 150.208389,117.004341 157.559555,110.517212 
	C173.373398,126.371468 188.898087,141.935822 204.422760,157.500168 
	C204.593887,163.460770 205.655685,169.574356 204.666077,175.335587 
	C203.810074,180.319107 198.826141,181.578049 193.932175,181.510178 
	C187.767334,181.424683 181.594528,181.639069 175.438034,181.396957 
	C173.656067,181.326874 171.359055,180.631104 170.245529,179.379379 
	C157.073318,164.572403 144.080933,149.605469 130.632492,134.212692 
	C132.336258,132.734634 133.915649,131.364487 135.758148,129.759155 
z"/>
<path fill="#08AEFD" opacity="1.000000" stroke="none" 
	d="
M176.092438,72.386070 
	C178.150192,87.207520 163.324753,97.772865 150.636673,92.285057 
	C143.048767,89.003159 138.036453,80.816063 139.098602,73.157074 
	C140.292114,64.550880 146.688507,57.938923 154.880325,56.843502 
	C163.811859,55.649162 171.652679,60.036182 174.959045,68.139420 
	C175.456009,69.357414 175.701538,70.678001 176.092438,72.386070 
M153.789429,84.966713 
	C160.551056,86.798195 166.531265,83.795143 167.944534,77.858528 
	C169.369873,71.871117 165.874069,66.064011 160.123108,64.865868 
	C154.824951,63.762074 149.986099,66.252678 147.912430,71.150848 
	C145.785248,76.175362 147.534912,80.757889 153.789429,84.966713 
z"/>
<path fill="#F9FCFE" opacity="1.000000" stroke="none" 
	d="
M153.433807,84.823524 
	C147.534912,80.757889 145.785248,76.175362 147.912430,71.150848 
	C149.986099,66.252678 154.824951,63.762074 160.123108,64.865868 
	C165.874069,66.064011 169.369873,71.871117 167.944534,77.858528 
	C166.531265,83.795143 160.551056,86.798195 153.433807,84.823524 
z"/>
</svg>